<?xml version="1.0" encoding="UTF-8" standalone="no"?>
<!-- Created with Inkscape (http://www.inkscape.org/) -->

<svg
   version="1.1"
   id="svg1"
   width="2486.6667"
   height="2480"
   viewBox="0 0 2486.6667 2480"
   sodipodi:docname="vecteezy_coloring-page-cat-work-lineart-kids-cute-illustration-clipart_4813121.eps"
   xmlns:inkscape="http://www.inkscape.org/namespaces/inkscape"
   xmlns:sodipodi="http://sodipodi.sourceforge.net/DTD/sodipodi-0.dtd"
   xmlns="http://www.w3.org/2000/svg"
   xmlns:svg="http://www.w3.org/2000/svg">
  <defs
     id="defs1" />
  <sodipodi:namedview
     id="namedview1"
     pagecolor="#ffffff"
     bordercolor="#000000"
     borderopacity="0.25"
     inkscape:showpageshadow="2"
     inkscape:pageopacity="0.0"
     inkscape:pagecheckerboard="0"
     inkscape:deskcolor="#d1d1d1">
    <inkscape:page
       x="0"
       y="0"
       inkscape:label="1"
       id="page1"
       width="2486.6667"
       height="2480"
       margin="0"
       bleed="0" />
  </sodipodi:namedview>
  <g
     id="g1"
     inkscape:groupmode="layer"
     inkscape:label="1">
    <path
       id="path1"
       d="m 4938.71,8907.07 c 50.16,3.63 100.24,6.09 150.04,11.13 48.24,4.89 97.19,8.36 143.98,19.96 46.68,11.61 101.45,-5.46 134.61,23.44 -52.18,58.48 -100.31,112.62 -148.71,166.52 -18.67,20.75 -37.54,15.67 -56.44,-0.42 -63.56,-54.15 -134.42,-99.81 -190.9,-162.15 -13.67,-15.08 -35.08,-26.45 -32.58,-58.48 z m 6149.89,287.34 c 82.5,-8.2 143.5,-15.39 204.6,-19.92 46.3,-3.44 93.7,-4.14 131.3,-34.69 29.8,-24.21 47.5,-9.45 69,10.67 56,52.54 101.7,112.5 135.3,181.52 58.1,119.49 122.6,235.47 188.6,350.74 80,139.61 143.4,285.86 165.4,447.07 1.8,13 16.9,30.3 -7.7,41.6 -245.9,-361.99 -529.9,-689.06 -886.5,-976.99 z M 2745.82,4153.4 c 11.8,-101.02 62.58,-219.49 133.32,-329.81 21.06,-32.81 39.49,-29.49 59.02,7.82 40.36,76.79 79.81,153.79 134.54,221.87 16.09,20 12.5,38.91 -3.52,58.52 -84.22,102.89 -110.98,226.72 -126.91,354.29 -6.53,52.11 -1.57,103.13 20.35,150.9 13.24,28.91 36.64,48.13 70.15,46.21 35.35,-1.99 40.86,-32.61 46.18,-58.4 14.72,-71.6 25.7,-143.9 40.78,-215.39 11.72,-55.62 26.21,-110.62 41.75,-165.19 8.72,-30.51 27.39,-39.02 53.44,-14.53 37.54,35.43 78.05,66.91 121.76,94.53 50.23,31.8 51.21,33.28 25.98,89.3 -38.4,85.07 -56.21,175.19 -67.19,266.79 -5.82,48.6 -5.86,97.89 18.01,142.97 13.36,25.31 33.55,43.13 64.41,41.33 27.97,-1.6 43.16,-21.02 52.89,-44.41 19.02,-45.4 24.61,-93.79 29.81,-142.5 7.69,-72.58 15.82,-145.32 27.22,-217.39 3.21,-20.19 -2.46,-59.53 33.28,-52.42 32.15,6.33 17.74,40.51 15.04,62.7 -18.32,150.5 -38.12,300.82 -57.03,451.21 -5.74,45.58 -9.88,91.48 -15.35,137.11 -4.18,34.8 -19.45,52.57 -59.26,47.18 -59.37,-8 -118.47,-15.89 -171.33,-45.97 -141.17,-80.43 -262.14,-182.74 -341.83,-327.11 C 2800.66,4548.79 2755.7,4371.6 2745.82,4153.4 Z M 11727.4,2921.02 c 10.4,-7.04 21,-4.73 31.1,-0.82 100.8,39.68 202.2,77.89 302.2,119.6 207.4,86.61 411.3,184.5 628.6,243.01 235.8,63.6 452,184.38 693.3,229.69 32.6,6.09 44.9,26.91 44.5,57.89 -0.2,10.82 -0.5,21.72 -0.8,32.5 -2.3,80.9 -7.7,86.33 -84.4,70.51 -58.4,-11.92 -115.5,-30 -174.1,-39.88 -210.8,-36.02 -420.9,-75.12 -632.7,-106.02 -248.9,-36.29 -495.9,-86.21 -747.9,-99.22 -77.1,-3.98 -79.6,-7.26 -79.5,-88.28 0.2,-140.12 -7.9,-280.7 19.7,-418.98 z m 2884.2,5849.02 c 5.1,-2.58 7.8,-5.08 9.7,-4.57 2.1,0.55 4.4,3.75 4.9,6.13 34.4,180.2 20.5,361.8 11.4,542.74 -4.8,96.95 -1.9,195.27 -27.9,290.54 -25.6,94.07 -75.5,166.68 -171.3,201.25 -38.2,13.79 -76.3,28.48 -112.7,46.17 -123.9,60.16 -255.7,86.33 -391.7,97 -180.7,14.22 -361.1,32.54 -542,43.08 -175.6,10.22 -351,12.12 -527.1,-7.69 -248.8,-28.01 -481.9,-125.08 -729.5,-156.72 -21.1,-2.7 -43.9,-10.27 -54.8,-31.13 -32.7,-62.31 -64.9,-124.85 -94.8,-188.48 -11.7,-24.73 4.7,-37.03 28.2,-32.58 18.1,3.48 35.2,13.56 52.1,21.8 83.1,40.35 168.4,76.95 258.7,94.96 323.6,64.53 646.9,133.87 980.8,98.24 94.1,-10.04 189.5,-9.65 283.1,-22.58 222.7,-30.78 427.1,-117.73 626.4,-217.18 48.8,-24.3 94.8,-55.47 127.4,-99.18 116,-155.12 211.9,-320.63 245,-515.32 9.5,-55.86 16.3,-112.14 24.1,-166.48 z M 3524.92,2994.49 c 18.95,0 37.97,-1.09 56.84,0.2 37.81,2.61 75.47,6.91 113.24,9.92 83.05,6.68 91.02,16.29 80.94,100.08 -0.98,8.01 -2.89,16.01 -3.91,24.02 -30.35,244.81 -84.45,485.39 -129.73,727.58 -19.88,106.41 -38.63,213.12 -59.14,319.49 -11.79,61.02 -24.06,66.92 -83.24,45.63 -67.19,-24.03 -126.64,-60.51 -179.41,-108.71 -109.03,-99.5 -199.06,-213.09 -268.79,-343.91 -62.93,-118.01 -110.94,-241.09 -141.95,-370.7 -37.93,-158.21 12.5,-272.89 152.93,-330.08 150.31,-61.21 306.05,-62.89 462.22,-73.52 z M 14473.5,8634.61 c -35.9,-24.18 -62.2,-43.01 -89.5,-60.12 -46.2,-28.98 -94.7,-53.9 -150.1,-58.01 -111,-8.28 -221.6,-6.36 -332,10.12 -164.1,24.61 -321.2,75.74 -480.2,120.35 -225.4,63.21 -438.3,157.62 -648,258.52 -136.4,65.58 -273.4,132.34 -389.9,232.3 -8.1,6.92 -18.3,21.57 -34.4,4.42 13,-20.51 25.3,-41.41 38.9,-61.33 102.6,-149.84 202.2,-301.45 279.2,-466.72 7.9,-17.15 19.2,-32.66 27.9,-49.53 26.2,-51.21 66.4,-82.81 122.7,-97.7 91.5,-24.29 179.5,-60.43 272.2,-81.4 77.1,-17.42 149.4,-48.01 215.9,-91.41 47.9,-31.21 100.4,-53.01 153.6,-73.59 234.6,-90.9 480.2,-101.99 727.5,-100 24,0.19 48,7.69 72.1,10.39 78,8.71 128.1,55.7 161.2,121.8 58.7,116.99 74.4,241.09 52.9,381.91 z M 12869.2,8297.7 c 28.6,-63.79 55.7,-116.41 75.9,-171.41 26.7,-72.58 67.5,-134.3 119.4,-191.17 85.9,-94.1 164,-194.61 231.4,-303.13 44.4,-71.48 94.8,-138.01 152.1,-200.08 65.9,-71.52 134.2,-141.71 183.4,-227.03 48.9,-84.68 110.5,-160 170.4,-237.07 135.3,-174.41 252.7,-359.02 284.1,-584.92 6.3,-45.51 18.4,-90.08 27.2,-135.27 7,-36.02 24.4,-66.53 51.4,-90.12 56.8,-49.69 117.6,-30.39 132.8,42.5 6.1,28.91 4.7,59.3 8.2,88.91 7.7,65.07 30.9,90.31 94.1,103.98 21.1,4.61 42.9,7.31 63.4,13.83 48.6,15.47 55.8,28.16 37,77.58 -19.2,50.5 -40.2,100.82 -65.3,148.59 -103,196.72 -202.7,395.31 -313.5,587.62 -121.5,210.9 -245,422.89 -455.8,562.58 -8.9,6.01 -16.1,14.53 -24.2,21.71 -222.4,198.91 -451.4,387.82 -740.8,484.11 -5.1,1.68 -10.3,2.89 -31.2,8.79 z m 236.8,1359.29 c -250.3,-21.13 -494.5,-52.42 -737.4,-93.51 -40,-6.76 -79.8,-15.67 -119.1,-25.75 -75.1,-19.18 -76.7,-27.07 -20.1,-84.68 5.7,-5.82 11.4,-11.53 17.4,-17.03 120.4,-110.4 250.6,-206.64 397.4,-279.65 177.1,-88.09 355,-174.07 539.8,-245.39 296.6,-114.5 598.9,-205.63 916.7,-238.48 113,-11.68 214.8,7.81 303.3,84.3 38,32.81 55,66.09 48.6,119.14 -21.8,181.48 -109.9,332.26 -211.5,477.18 -25.1,35.71 -62.5,60.2 -102.4,78.48 -132.9,61.02 -266,120.47 -408.2,158.99 -206.6,56.01 -419.9,36.91 -624.5,66.4 z M 12095.4,3607.5 c -119,117.38 -170.9,256.41 -173.7,414.49 -1.5,78.6 -1.7,157.62 38.2,229.3 9.2,16.41 20.9,35.51 42.7,32.5 24.3,-3.48 21.5,-27.31 24.8,-45.2 16.5,-87.81 34.3,-175.39 48.7,-263.59 15.7,-96.02 60,-178.91 110.8,-259.69 33.8,-53.9 81.8,-75.82 143.6,-74.8 60.1,0.97 118.2,15.08 176.1,28.4 47.3,10.89 49.4,14.49 28.5,60.58 -38,83.6 -46.8,172.7 -48.9,261.92 -1.8,78.39 6.7,157.18 37.6,230.97 10.6,25.32 26.7,51.53 57.6,50.51 36.4,-1.17 35.7,-35.7 40.8,-60.9 15.4,-74.88 11.1,-151.21 11.8,-226.87 0.6,-76.33 7.6,-151.84 22.1,-226.21 11.2,-57.31 28.5,-67.5 84.8,-57.89 125.4,21.48 249.9,49.18 376,65.07 98.3,12.43 135.8,78.01 164.5,156.8 16.2,44.22 14.7,91.33 9.9,136.91 -18.4,175.51 -47.2,347.82 -116.1,513.09 -46.5,111.6 -119.8,187.81 -222.8,247.23 -186,107.18 -388.5,152.38 -598.2,162.38 -202.2,9.8 -387.3,-41.6 -527.7,-201.91 -16,-18.21 -33.5,-36.37 -53.7,-49.38 -56.7,-36.52 -70.9,-87.23 -70.2,-152.5 3.2,-265.51 1.6,-531.09 2.1,-796.72 0.1,-65.08 0,-130.19 2.8,-195.08 2.2,-49.92 10.9,-55.62 60.2,-47.5 69.5,11.49 138.6,24.81 208.1,36.18 37.1,6.01 75.9,3.63 119.6,31.91 z m 2926.4,131.6 c 105.1,0 199.9,0.12 294.8,-0.12 33,0 64.1,2.23 89.1,29.42 90,97.62 182,192.89 249.9,308.9 86.6,147.82 145.7,308.6 222,461.1 85.4,170.58 144,350.7 182.3,537.3 69.1,337.39 122.4,677 141.5,1021.21 9,162.7 5.2,326.18 -25.3,485.9 -35.1,183.28 -85.7,363.6 -128,545.71 -19.7,85 -53.8,164.18 -86.8,244.49 -60.2,145.9 -161.2,262.5 -261.9,379.29 -90.6,105 -207.7,150.51 -346.5,148.01 -98.4,-1.79 -183,-38.9 -268.9,-81.79 -119.7,-59.81 -182.8,-154.93 -206.7,-283.21 -34,-183.4 -15.4,-367.11 -8,-550.9 7,-171.13 54.3,-336.79 66,-507.22 13.9,-202.89 19.8,-405.71 -3.6,-608.48 -23.4,-203.12 -88.3,-396.41 -140.6,-592.5 -61.7,-231.41 -147.7,-453.2 -282.3,-653.71 -22.5,-33.71 -42.3,-69.49 -61.7,-105.2 -53.4,-98 -119.5,-186.71 -190.1,-272.89 -58.3,-71.32 -129.3,-131.52 -178.7,-210.43 -60.4,-96.79 -126.2,-189.49 -214.1,-264.18 -11.9,-10 -29.9,-20.39 -24.4,-38.78 6.7,-22.62 29.7,-20.51 48,-20.9 181.5,-4.61 363.4,-9.53 544.3,3.16 199.9,13.91 399.1,36.52 589.7,25.82 z m -1430.5,-26.21 c 25.2,33.01 26.6,33.01 28.6,75.82 14.6,300.98 -3.5,601.49 -22.1,901.6 -13.7,218.91 -39.6,436.99 -56.8,655.71 -18.9,240.7 -46.4,480.39 -94.7,716.68 -86.5,423.08 -230.2,830 -363.6,1239.49 -84,257.93 -210.5,499.41 -304.5,753.71 -16.9,45.51 -38.4,90.19 -63.7,131.6 -117.6,191.72 -230.8,385.78 -334.8,585.23 -2.5,4.81 -5.9,9.15 -8.7,13.75 -102.4,165.86 -217.7,324.18 -290.9,507 -27.9,69.88 -89.4,114.84 -136,170.82 -20.5,24.57 -38.1,13.86 -51.5,-7.62 -20.2,-32.19 -41.2,-64.06 -57.8,-98.09 -71.9,-147.93 -160.5,-282.89 -292.6,-384.88 -30.2,-23.36 -32.7,-53.01 -26.3,-87.34 10,-53.21 23.7,-106.53 26.2,-160.24 11.9,-262.54 27.6,-525.11 28.9,-787.85 2.2,-422.89 14.1,-845.47 24.9,-1268.16 3.6,-143.32 10,-287.03 18.3,-430.32 13.1,-224.49 29.8,-448.71 42.7,-673.08 13.1,-229.92 23.4,-460 35.2,-689.92 0.5,-10.32 0.6,-22 20.5,-25.9 36.3,42.5 73.3,89.22 120.7,125.51 172.4,132.5 370,176.21 582.1,159.37 229.6,-18.16 447.1,-77.5 647.8,-196.09 104.3,-61.6 183.3,-140.71 233.9,-250.9 121.8,-265.39 143.8,-541.41 92.4,-825.9 -2,-10.9 -1.8,-21.6 9.1,-28.59 149,3.4 149,3.4 192.7,-121.41 z M 4496.91,14382 c -4.14,-82.4 18.32,-155.9 19.18,-231 3.68,-309.8 53.79,-615.1 96.06,-920.7 34.49,-249.3 90.47,-495.6 136.21,-743.3 43.79,-237.1 90.12,-473.5 128.91,-711.6 23.28,-143.2 29.88,-284.5 29.1,-428.1 -1.33,-238.5 -3.44,-477.1 2.15,-715.5 5.35,-228.4 36.75,-453.4 116.25,-669.73 74.92,-203.91 173.71,-397.11 263.51,-594.3 17.7,-38.82 45.39,-73.98 72.5,-107.54 69.81,-86.36 142.81,-170.07 212.38,-256.56 21.1,-26.25 46.22,-25.23 72.97,-22.22 110.32,12.34 220.43,26.44 330.75,38.43 174.96,19.07 349.68,43.67 525.23,53.56 194.69,10.94 389.18,26.44 583.48,40.58 391.68,28.56 783.75,49.81 1175.74,71.33 254.18,13.95 509.22,12.5 763.75,15.67 550.08,6.75 1100.32,3.36 1650.52,0.31 107.3,-0.63 202.6,34.96 276.3,99.84 123.7,109.03 257.4,209.69 362.6,337.5 163.1,198.32 344.2,380.43 486.9,597.83 120,182.8 206.8,372.7 256.7,583 40.8,171.6 71.5,344.9 94.3,519.6 23.8,183.1 31.4,366.5 10.8,551 -29.6,266.7 -119.8,516.6 -206.1,767.7 -19.5,56.8 -51.7,107.1 -87.7,155.1 -84.6,112.7 -169.5,225.2 -252.8,338.9 -48.4,66 -102.6,125.9 -167.2,176.3 -28,21.9 -58.1,45 -66.9,79.9 -25.7,102.4 -73.6,197.4 -92.2,302.6 -46,259.2 -108.1,514.5 -205.5,759.9 -62,156.3 -116.9,314.9 -173.1,473.3 -57.9,162.9 -102,331.8 -197.2,480.1 -71.9,111.8 -133.7,229.4 -185.6,352 -29.3,69 -58.1,138.3 -89.1,212.3 -44,-23.8 -69.2,-59.2 -94.2,-93.3 -66.1,-89.8 -141.7,-171 -220.5,-249.5 -34.6,-34.4 -69.1,-69.1 -100.4,-106.4 -196.46,-234.6 -405.72,-458.2 -591.07,-702.5 -83.51,-110.1 -169.29,-218.2 -245.31,-333.8 -41.64,-63.4 -85.39,-125.5 -129.49,-187.2 -70.94,-99.2 -142.5,-198 -201.88,-304.9 -16.25,-29.2 -31.36,-52.8 1.29,-85.6 33.64,-33.7 27.03,-48.4 -16.21,-72.5 -48.94,-27.2 -102.07,-35.5 -157.19,-32.3 -348,20 -683.98,-58 -1020.82,-127 -205.31,-42 -399.53,-119.2 -593.2,-197 -30.23,-12.2 -60.12,-26.3 -93.52,-24.5 -47.96,2.6 -67.18,37.4 -44.49,78.3 37.97,68.4 38.64,69.6 -30.19,108.1 -40.08,22.5 -81.25,44.8 -124.57,59.3 -115.55,38.6 -230.63,78.6 -348.67,109.8 -198.99,52.5 -397.08,108.4 -595.43,163.1 -164.54,45.5 -323.6,108.5 -490.08,148.1 -226.72,53.9 -452.19,112.7 -672.46,189.9 -55.63,19.5 -112.7,34.8 -174.5,53.7 z M 11395.6,7858.52 c -1,0.07 -2,0.07 -3.1,0.07 0,292.7 0.3,585.51 -0.1,878.21 -0.1,64.22 9.5,130.9 -42.2,183.98 -6.5,6.72 -8.2,20.39 -8.1,30.82 0.3,43.44 -26.4,52.93 -63,56.84 -142.9,15.19 -286.4,25.66 -429.7,25.62 -734.4,-0.23 -1468.81,10.51 -2203.19,-11.29 -173.32,-5.15 -346.64,-10.89 -519.57,-21.6 -108.16,-6.68 -216.41,-10.86 -324.53,-17.03 -251.41,-14.34 -502.77,-29.69 -754.14,-44.65 -110.86,-6.6 -222.31,-8.16 -332.35,-21.29 -99.76,-11.83 -200.07,-8.04 -299.8,-21.72 -131.33,-18.04 -263.94,-26.95 -396.05,-39.49 -207.5,-19.76 -415.24,-37.54 -622.5,-59.53 -193.87,-20.51 -387.04,-47.38 -580.86,-67.89 -263.91,-27.93 -527.27,-59.92 -790.43,-94.14 -136.53,-17.77 -273.25,-40.23 -412.27,-24.41 -40.16,4.57 -81.33,3.32 -121.83,0.97 -95.79,-5.51 -130.43,-42.3 -131.65,-137.69 -1.87,-143.79 5.86,-287.5 24.11,-429.89 44.72,-349.8 61.56,-701.32 76.25,-1053.2 4.49,-108.2 15.86,-216.09 25.23,-324.02 12.66,-145.71 31.41,-290.78 41.09,-436.88 10.75,-162.11 25.24,-324.02 42.39,-485.62 20.27,-191.29 48.32,-381.68 67.34,-572.97 38.87,-391.13 91.41,-780.31 158.16,-1167.5 52.04,-301.72 101.41,-603.91 132.9,-908.52 11.36,-109.8 32.07,-219.8 4.8,-331.01 -14.49,-59.1 -8.52,-64.69 54.65,-63.6 64.92,1.02 130.12,12 194.57,8.21 194.61,-11.49 388.79,-18.91 584.1,-14.81 539.02,11.41 1078.13,15.82 1617.19,31.21 546.87,15.51 1094.22,2.31 1641.29,34.42 424.45,24.76 850.5,-3.21 1275.93,16.17 340.9,15.51 682.7,4.8 1024.07,16.8 205.8,7.22 411.8,11.21 617.2,24.21 129.5,8.21 259.8,9.69 388.9,27.39 71.3,9.8 137,33.12 200.3,64.02 53.4,26.09 64.2,59.57 48.2,119.69 -4.8,18.08 -8.5,36.91 -9.2,55.58 -9.5,243.64 -24.1,487.23 -26.2,730.9 -3.7,436.33 -4.7,872.5 -36.4,1308.13 -14,191.79 -18.9,384.37 -38.6,575.58 -43.2,420.9 -54.8,843.4 -70.7,1265.51 -11.3,297.81 -2.2,596.29 -2.2,894.42 z m 985.3,4097.58 c 22.5,-0.6 36.1,22.8 54.2,37.5 161.1,131.7 337.5,235.6 536.4,299.6 43.9,14.1 88.2,28.1 134.4,30.4 36.5,1.7 73.1,-6.1 87.1,-45.5 14.8,-41.7 -13.8,-65.7 -45.2,-85 -48.7,-29.9 -101.9,-51.3 -155.8,-69 -203.9,-67.1 -378.2,-186.6 -552.5,-306.7 -37.3,-25.8 -54.2,-56.5 -52.2,-102 3.1,-72.4 2.3,-145 -6,-215.6 32,-9.2 49.5,6.6 68.1,16.1 180.7,92 372.6,146.5 573.2,172.1 70.4,9 140.5,10.7 210.2,-5.9 13.1,-3.1 26.7,-5.3 39.3,-9.8 48.5,-17.5 76,-48.7 67.3,-79.3 -12.2,-43 -50.9,-47.5 -85.4,-47 -153,2.1 -302.5,-21.2 -450.9,-54.4 -132.7,-29.7 -259.8,-76.3 -384.5,-130.1 -38.8,-16.7 -59.2,-41 -64.4,-84.3 -8.9,-75.3 -24,-149.8 -35.6,-224.8 -7.3,-47.7 -2.3,-52.8 46.3,-39.6 200.7,54.5 405.3,70.2 612.1,62.1 75.7,-3 151.3,-10.2 226.8,-16.9 29.7,-2.6 59.4,-8.5 85.6,-23.8 43.3,-25.3 42.3,-62.1 -2.6,-85.9 -26.7,-14.1 -56.4,-20.5 -86.2,-21.3 -102.9,-2.6 -205.8,-1.7 -308.8,3.8 -181.6,9.8 -362.4,-3.7 -542.2,-30.6 -45.3,-6.8 -71.1,-28.7 -81.5,-76.1 -28.9,-132.8 -74.2,-260.5 -129.1,-384.8 -11,-24.8 -21.5,-50.3 -14.2,-78.5 33.3,-127.7 37,-256.6 10.8,-381.46 20.4,-25.12 39.7,-12.82 56.4,-8.05 49.5,14.06 99.4,27.62 147.1,46.31 300.2,117.5 611.9,162.7 932.4,146.3 148.7,-7.6 296.9,-24.1 445.2,-37.9 124,-11.4 248.2,-19.2 371.7,-37.6 172,-25.7 326.7,-98.48 480.6,-170.94 106.5,-50.08 162.4,-148.83 193.8,-259.45 12.5,-44.1 22.6,-90.2 24.6,-135.74 9.6,-216.14 41.3,-432.15 9.5,-648.79 -23.7,-161.64 -59.1,-320.98 -139.3,-464.89 -52.6,-94.18 -114.1,-183.71 -175.3,-272.81 -59.3,-86.17 -150.2,-123.59 -248.7,-139.3 -163.3,-25.97 -327.3,-48.08 -493,-18.98 -15.8,2.81 -32.4,1.91 -48.6,1.29 -4.1,-0.08 -8,-5.59 -15.3,-11.09 16.4,-35.79 50.3,-55.98 80.3,-75.59 232.5,-151.99 376.8,-379.81 515.3,-609.22 119,-196.99 220.4,-404.61 310.6,-616.87 23.3,-54.81 43.9,-111.14 59.9,-168.4 29.4,-105.43 -14,-180.43 -118.7,-213.01 -12.9,-4.1 -26.2,-6.99 -39.4,-10 -64.8,-14.73 -64.7,-14.73 -77.3,-82.42 -3.5,-18.6 -7.1,-37.39 -13,-55.28 -38.9,-118.39 -160,-166.4 -268.3,-104.02 -77.1,44.3 -139.9,101.33 -156.7,196.09 -8,45.12 -26.2,88.4 -35.2,133.52 -42.1,211.09 -152.5,386.29 -286.3,549.3 -48.2,58.71 -94.5,118.59 -131,185.7 -41.7,76.8 -96.9,143.4 -154.9,208.28 -44.1,49.42 -85.5,101.21 -130.3,154.61 -8.9,-26.09 3.7,-42.58 9.6,-59.49 112.9,-322.5 206,-651.1 305.4,-977.81 76.1,-250 111,-507.89 143.8,-766.1 29.4,-231.4 32,-464.8 51.8,-696.79 27.2,-319.3 30.9,-638.72 29.9,-958.48 -0.1,-15.7 -1.8,-32.11 11,-49.02 34.6,10.82 51.4,39.1 68.4,65.19 78.5,120.63 162.4,236.33 263.2,340.2 60.1,62.03 108.4,135 152.9,209.92 120.5,202.77 246.2,403.01 306.7,634.61 63,241.09 135.4,480.78 161.5,729.37 18.7,177.81 15.6,357.5 -2.1,535.9 -26.5,266.8 -67.8,532.11 -71.3,801.02 -1.5,118.08 17.3,231.79 56.7,342.89 34.3,96.29 94.8,169.92 185.5,216.91 41.2,21.41 78.3,47.58 114.6,76.41 242.2,191.99 570.5,168.4 790.7,-50.12 180.2,-178.79 316.9,-384.88 401.4,-623.2 75.2,-212.11 138.9,-429.1 171,-651.8 26.2,-182.19 15.1,-368.09 0,-551.91 -26.7,-324.81 -90.1,-643.99 -158.8,-961.8 -50.5,-233.99 -130,-458.59 -247.7,-668.59 -31.8,-56.61 -57,-116.92 -84.1,-176.1 -70.2,-153.59 -154,-298.59 -267.4,-425 -10.7,-11.91 -19.9,-25.12 -30.1,-38.01 17.7,-25.31 41.3,-16.4 60.7,-14.61 132.6,13.01 264.9,4.61 397.6,1.14 216.5,-5.63 433.3,-9.92 650.1,5.27 132.3,9.3 265.6,8.71 398.3,6.8 271.2,-4.1 541.9,11.91 812.8,14.92 54.5,0.59 108.4,-2.31 161.5,-15 26.5,-6.41 52.3,-15 73.7,-32.5 29.1,-23.59 26.9,-44.49 -9.1,-58.13 -83.7,-31.68 -168.7,-59.37 -259.8,-60.78 -355,-5.31 -709.8,-16.21 -1064.7,-21.21 -186.8,-2.69 -373.6,-11.29 -560.6,-11.6 -111.2,-0.19 -222.5,14.92 -332.8,10.51 -382,-15.39 -764.1,-6.68 -1146.1,-12.5 -221.6,-3.4 -442.5,-38.6 -665.2,-29.81 -100.2,3.91 -200.3,10.12 -298.1,33.79 -63.8,15.51 -129.7,9.1 -193.5,22.74 -26.1,5.58 -40.3,-10.51 -45.9,-34.81 -7.3,-31.6 -17.4,-62.93 -21,-94.92 -5.5,-49.69 -33.1,-78.2 -77.6,-93.98 -12.8,-4.61 -25.5,-9.42 -38.6,-12.89 -303.4,-83.01 -594.8,-201.92 -893.7,-298.64 -139,-45 -272.7,-105.97 -409.7,-157.38 -172.7,-64.8 -346.5,-126.29 -533.9,-132.19 -22.3,-0.7 -42.9,-7.22 -61.5,-18.71 -90.7,-56.4 -192.8,-68.79 -295.7,-77.62 -551.3,-47.38 -1104.2,-43.08 -1656.77,-53.47 -479.73,-9.1 -959.46,-5.9 -1439.03,-14.92 -270.54,-5.08 -540.82,-26.8 -811.25,-40.39 -51.4,-2.5 -102.97,-2.58 -154.45,-2.7 -195.2,-0.39 -390.35,-1.48 -585.55,-0.12 -352.34,2.62 -704.18,-18.08 -1056.4,-23.98 -341.33,-5.7 -682.7,-9.18 -1024.07,-11.6 -81.21,-0.59 -162.26,2.5 -243.2,14.1 -101.91,14.61 -204.65,19.8 -307.93,18.59 -90.43,-0.97 -119.37,23.79 -143.2,111.92 -9.18,33.98 -16.25,68.47 -22.97,103.08 -11.41,58.79 -14.88,65.82 -72.66,59.1 -83.75,-9.68 -167.46,-12.11 -251.48,-11.21 -161.37,1.72 -318.59,23.71 -466.8,92.31 -41.95,19.53 -82.93,40.62 -119.84,68.32 -86.84,65.27 -125.98,153.28 -120.08,261.48 0.74,13.52 2.5,26.99 3.71,40.51 2.7,30.12 -8.63,46.21 -41.33,44.3 -29.76,-1.8 -59.61,-1.68 -89.41,-1.68 -200.55,0.58 -400.98,3.4 -601.45,10.19 -306.21,10.28 -612.34,-9.02 -918.32,-17.81 -140.579,-4.1 -281.52,-6.41 -422.141,-13.01 -71.957,-3.4 -139.891,13.71 -206.957,36.1 -17.731,5.89 -37.731,15.31 -34.883,38.71 2.152,17.89 19.731,25.11 35.191,29.49 23.36,6.72 47.192,14.3 71.219,15.9 270.11,17.81 539.491,43.71 810.311,55.11 409.26,17.19 818.44,7.5 1227.58,14.5 62.26,1.09 124.61,5.19 186.75,3.2 35.82,-1.09 49.07,14.22 53.05,45.7 1.37,10.71 4.92,21.1 7.34,31.68 18.83,81.6 18.87,81.72 -47.96,130.12 -33.4,24.22 -61.96,53.28 -82.47,88.79 -93.78,162.62 -159.17,329.73 -122.38,525.43 26.29,139.57 63.28,273.87 120.04,403.87 80.16,183.51 214.73,317.11 380.78,422.03 82.23,51.99 172.5,76.09 271.02,69.49 73.55,-4.92 78.67,1.41 69.1,76.09 -25.2,196.21 -51.72,392.11 -66.25,589.5 -12.7,172.89 -28.52,345.5 -43.01,518.32 -13.12,156.6 -26.44,313.08 -39.37,469.68 -3.6,43.21 -8.21,86.41 -8.71,129.69 -4.15,349.73 -28.48,698.2 -59.93,1046.41 -14.14,156.6 -10.58,314.22 9.38,470.82 7.42,58.59 36.6,98.79 88.83,127.11 114.33,61.99 236.72,92.54 365.5,99.22 211.37,10.97 419.46,49.72 629.18,74.37 99.5,11.68 198.52,27.3 298.01,39.06 39.03,4.61 57.27,24.34 77.5,58.48 64.18,108.28 154.3,194.84 256.02,268.52 37.22,26.95 77.46,49.88 116.83,73.74 30.86,18.72 38.09,41.84 21.96,75.12 -79.85,164.42 -38.13,142.42 -193.6,95.28 -109.29,-33.17 -214.49,-75.4 -316.4,-127 -89.57,-45.35 -182.97,-81.95 -279.77,-109.45 -34.3,-9.73 -68.98,-17.03 -104.22,-9.3 -50.78,11.18 -67.46,57.11 -36.79,99.38 17.93,24.69 43.71,40.78 70.07,54.53 209.26,108.83 417.66,219.65 654.5,259.45 70.66,11.84 71.25,16.6 41.4,84.3 -18.55,42.19 -38.9,83.79 -53.86,127.23 -16.22,47.07 -46.61,61.21 -93.6,56.21 -209.88,-22.19 -421.72,-27.15 -628.2,-78.71 -68.01,-16.96 -138.87,-23.01 -208.75,-31.37 -37.66,-4.49 -76.17,-3.48 -111.92,12.81 -59.25,26.95 -66.13,82.74 -13.71,120.08 17.31,12.3 38.25,20.62 58.64,27.38 261.68,86.44 529.14,138.44 806.01,133.04 5.43,-0.1 10.82,-0.1 16.25,0 81.49,1.2 85.08,5.7 69.81,82.6 -44.5,223.9 -65.04,449.2 -54.34,678.3 9.88,211.1 12.7,422.5 37.19,632.6 9.41,80.7 23.4,160.9 37.85,240.9 5.62,31 2.27,58.1 -11.49,86.2 -121.52,248.4 -183.59,515 -233.98,784.4 -40.86,218.3 -82.46,437.2 -107.38,657.7 -30.08,266.3 -66.72,532.1 -78.09,800.5 -5.97,140.6 -14.41,281.4 -37.15,420.7 -3,18.7 -5.7,37.7 -5.78,56.6 -0.35,91.5 54.14,136 143.24,111.1 88.6,-24.8 175.32,-56.3 262.86,-84.9 221.68,-72.5 446.6,-133.4 673.12,-188.3 121.29,-29.4 240.39,-65.8 358.75,-105.2 241.84,-80.4 493.01,-127.1 736.17,-203.5 113.87,-35.8 226.45,-74.4 337.7,-117.1 92.62,-35.5 171.72,-90.3 238.24,-165 45,-50.5 61.84,-53.4 120.55,-22.7 206.95,108 430.11,162 657.65,202.4 162.66,28.9 324.57,62.1 488.95,80.8 102.77,11.7 205.7,11.8 308.44,4.1 73.98,-5.6 73.9,-8.3 103.12,56.1 135.24,297.8 317.03,567.4 508.52,830.4 186.75,256.6 397.18,494.2 608.4,730.5 137.07,153.3 288.35,293.9 420.55,452.3 29.5,35.4 67,63.5 106,88.1 69,43.6 126,35.8 182.5,-22.4 40.6,-41.6 65.3,-93 87.4,-145.5 69.5,-165.2 148.7,-325.3 245.2,-476.6 103.1,-161.6 161,-343.4 224.2,-521.9 62.5,-176.3 131.2,-350.2 196.5,-525.4 81.9,-219.8 128.4,-447.4 153.5,-680.1 9.1,-83.7 16.4,-167.2 12,-251.4 -1.6,-31.2 2.4,-61.6 35.3,-75.4 169.4,-70.8 262.6,-221.6 372.8,-354.3 34.6,-41.7 65.4,-86.6 100.3,-128 90.3,-107.4 150.7,-229.8 196.8,-362 73.3,-210.1 144.9,-420.2 179.2,-641 1.2,-8 4.8,-15.8 19.7,-19.1"
       style="fill:#231f20;fill-opacity:1;fill-rule:nonzero;stroke:none"
       transform="matrix(0.13333333,0,0,-0.13333333,0,2480)" />
    <path
       id="path2"
       d="m 7265.94,5301.29 c 0,0.51 0,0.9 0,1.41 48.67,0 97.46,-2.19 146.01,0.5 108.01,5.78 215.2,20.08 321.96,37.31 121.25,19.49 187.85,97.77 224.45,208.4 19.96,60.31 19.3,122.69 16.48,184.88 -6.83,149.49 -71.32,234.73 -212.38,282.11 -54.14,18.2 -109.34,30.31 -166.87,30.12 -86.57,-0.32 -173.13,-0.9 -259.65,0.19 -75.98,1.09 -143.6,-21.01 -204.57,-65.82 -28.32,-20.9 -57.27,-40.9 -86.72,-60.08 -142.93,-92.69 -205.35,-221.4 -189.42,-393.01 13.25,-142.3 80.71,-217.3 224.11,-225.39 62.03,-3.63 124.37,-0.62 186.6,-0.62 z m -8.91,-169.38 c -65.43,0 -125.08,-1.01 -184.69,0.28 -95.74,2.11 -179.18,37.81 -253.32,97.11 -61.64,49.29 -100.97,111.6 -115.39,190.19 -18.79,102.42 -22.5,204.1 3.52,306.1 17.62,69.02 54.88,124.02 113.4,163 38.83,25.9 72.65,56.21 102.81,91.29 7.07,8.21 15.55,15.24 22.66,23.4 129.8,148.63 293.47,214.34 490.31,209.34 119.06,-2.93 237.73,3.98 355.23,-26.53 236.29,-61.09 352.11,-206.79 353.21,-449.49 0.54,-124.61 -25.04,-241.29 -89.85,-349.49 -66.44,-110.9 -159.61,-182.23 -286.99,-207.7 -170.55,-34.21 -342.46,-53.63 -510.9,-47.5"
       style="fill:#231f20;fill-opacity:1;fill-rule:nonzero;stroke:none"
       transform="matrix(0.13333333,0,0,-0.13333333,0,2480)" />
    <path
       id="path3"
       d="m 4110.74,3033.98 c 9.57,24.3 30.67,21.8 48.64,22.5 54.17,1.8 108.39,1.33 162.18,-7.26 56.56,-9.02 113.79,-9.53 170.32,-3.91 362.3,35.9 725.46,18.28 1087.53,6.8 273.68,-8.71 547.43,-16.21 820.36,-5.51 235.74,9.3 471.28,5.59 706.75,12.89 159.65,4.92 319.1,15.71 478.68,23.91 13.51,0.7 27.03,1.91 40.54,2.19 278.95,7.11 557.89,12.61 836.72,21.6 240.86,7.69 481.64,19.72 722.46,28.9 67.66,2.62 135.51,1.1 203.2,3.4 482.08,16.41 964.48,5.12 1446.58,17.31 94.7,2.42 189.3,8.59 284,13 13.5,0.59 27.1,2.19 40.6,1.49 30.7,-1.68 74.3,9.22 75.9,-37.07 1.3,-40 -38.6,-47.5 -71.2,-51.92 -40.2,-5.5 -80.7,-9.8 -121.2,-11.6 -568.6,-24.92 -1137.72,-12.11 -1706.43,-23.2 -267.82,-5.31 -535.86,-14.61 -803.71,-24.3 -284.07,-10.19 -568.52,-18.51 -852.7,-26.6 -205.39,-5.9 -411.37,-16.01 -616.8,-20.9 -435.66,-10.58 -872.03,-16.72 -1307.54,-4.29 -457.81,12.89 -915.46,11.09 -1373.2,14.68 -70.12,0.51 -140.31,10.71 -210.04,19.81 -21.6,2.81 -49.37,1.4 -61.64,28.08"
       style="fill:#231f20;fill-opacity:1;fill-rule:nonzero;stroke:none"
       transform="matrix(0.13333333,0,0,-0.13333333,0,2480)" />
    <path
       id="path4"
       d="m 8301.84,6435.7 c 4.72,44.5 -20.75,89.69 -66.06,125.59 -20.16,15.9 -42.77,26.09 -67.26,12.62 -53.13,-29.5 -99.26,-66.72 -116.37,-128.52 -19.69,-71.09 26.56,-160.51 90.74,-178.59 47.54,-13.52 125.31,33.98 148.75,90.39 8.56,20.51 9.45,41.91 10.2,78.51 z m -408.01,-22.5 c 3.59,126.1 72.97,212.5 180.55,275.32 82.96,48.47 293.32,-21.22 341.75,-146.41 64.3,-166.02 -21.6,-359.22 -190.39,-417.5 -51.68,-17.81 -100.86,-16.21 -149.26,8.98 -111.71,58.21 -179.68,145.39 -182.65,279.61"
       style="fill:#231f20;fill-opacity:1;fill-rule:nonzero;stroke:none"
       transform="matrix(0.13333333,0,0,-0.13333333,0,2480)" />
    <path
       id="path5"
       d="m 6945.7,6373.52 c 48.32,0.97 69.18,18.67 68.64,58.2 -0.55,41.09 -30.32,75.58 -66.29,76.68 -44.14,1.48 -73.79,-30.59 -71.14,-76.99 2.43,-42.19 22.23,-58.91 68.79,-57.89 z m 212.11,35.7 c 0.35,-75.31 -32.61,-130.63 -101.09,-161.92 -29.34,-13.39 -60.78,-23.51 -92.27,-30.58 -151.64,-34.34 -277.61,84.3 -254.06,237.89 3.75,24.49 9.26,50.39 27.5,66.68 65,57.69 133.95,112.5 226.06,114.22 113.47,2.11 194.02,-94.61 193.86,-226.29"
       style="fill:#231f20;fill-opacity:1;fill-rule:nonzero;stroke:none"
       transform="matrix(0.13333333,0,0,-0.13333333,0,2480)" />
    <path
       id="path6"
       d="m 7479.26,6499.49 c 52.5,1.92 93.4,40.2 89.88,84.1 -3.01,37.43 -42.5,77.82 -72.66,74.11 -31.75,-3.79 -80.35,-65.32 -80.78,-102.11 -0.39,-35.9 24.1,-57.58 63.56,-56.1 z m -25.78,-148.08 c -73.83,-1.41 -136.49,30.78 -173.09,102.18 -38.24,74.61 -39.8,150.63 10.39,222.19 33.28,47.42 187.38,113.13 244.65,105.51 137.03,-18.28 216.45,-191.8 139.14,-305.78 -51.25,-75.71 -119.84,-123.21 -221.09,-124.1"
       style="fill:#231f20;fill-opacity:1;fill-rule:nonzero;stroke:none"
       transform="matrix(0.13333333,0,0,-0.13333333,0,2480)" />
    <path
       id="path7"
       d="m 6451.33,6057.7 c -0.31,-45 13.75,-66.92 41.37,-64.42 31.13,2.93 53,30.63 54.37,68.91 1.52,41.01 -17.34,71.09 -46.33,73.83 -29.69,2.69 -49.06,-27.93 -49.41,-78.32 z m -167.35,-17.82 c -0.54,127.23 89.3,215.82 220.51,217.5 107.62,1.41 188.87,-87.07 191.41,-208.28 2.46,-120.19 -104.3,-225.58 -228.36,-225.31 -102.97,0.19 -183.01,94.41 -183.56,216.09"
       style="fill:#231f20;fill-opacity:1;fill-rule:nonzero;stroke:none"
       transform="matrix(0.13333333,0,0,-0.13333333,0,2480)" />
    <path
       id="path8"
       d="m 6351.37,13348.7 c -96.21,47.7 -190.28,100.6 -289.14,141.9 -277.19,116 -549.77,243.5 -834.65,340.8 -38.17,13 -73.75,33.8 -110.24,51.5 -58.47,28.4 -116.32,58.1 -175.11,85.7 -62.82,29.6 -126.92,48.4 -194.96,14.3 -12.07,-6 -27.7,-8.5 -37.39,4 -9.72,12.6 -1.36,25 5.86,36.9 48.13,78.8 110.08,107.1 199.49,86.8 42.07,-9.6 85.86,-19.2 123.64,-38.8 207.61,-107.9 433.75,-168.9 648.01,-260 276.64,-117.6 554.02,-233.3 820.31,-373.7 40.74,-21.4 82.54,-41.7 117.65,-71.8 34.65,-29.6 57.7,-66.3 43.21,-114.3 -13.75,-45.4 -51.96,-59.6 -94.1,-65.4 -34.85,-4.9 -70.12,-13 -104.85,-11.5 -131.09,5.7 -224.69,-67.8 -315.47,-146.3 -49.14,-42.5 -93.94,-90.1 -131.17,-143.8 -78.36,-113 -176.76,-204 -292.62,-277.9 -96.13,-61.3 -177.07,-139.7 -258,-220.8 -107.93,-108.2 -202.82,-224.6 -290.12,-348.7 -9.3,-13.2 -19.53,-26.6 -32.11,-36.2 -17.31,-13.3 -32.5,-6.2 -33.28,14.9 -0.71,18.4 5.04,37.3 9.33,55.6 29.65,126.6 93.17,236.9 171.1,338.4 100.82,131.4 209.26,255.2 354.29,342.3 98.56,59.3 176.22,141.6 242.74,236.3 113.32,161.5 262.66,278.6 457.58,359.8"
       style="fill:#231f20;fill-opacity:1;fill-rule:nonzero;stroke:none"
       transform="matrix(0.13333333,0,0,-0.13333333,0,2480)" />
    <path
       id="path9"
       d="m 10747.3,13523.8 c -72.8,-2.3 -140.7,18.9 -204.2,49.4 -145.2,69.8 -297.2,113.4 -455.5,142.9 -119.48,22.2 -238.58,53.7 -352.72,95.2 -109.76,39.8 -216.4,38.9 -326.79,17.3 -56.61,-11.1 -112.93,-10.1 -169.38,2.6 -93.87,21.1 -116.64,60 -90.51,150.8 42.07,146.3 125.78,269 216.33,388.2 24.57,32.3 51.88,63.1 72.74,97.7 127.5,211.7 284.76,402.4 425.27,604.9 84.02,121.2 189.96,222.2 295.76,323.4 23.5,22.5 50.1,41.6 79.8,55.4 47.8,22.2 105.8,11.1 141.6,-27 19.2,-20.4 19.3,-45.8 -9.3,-49.1 -80,-9.1 -120.3,-69.4 -165.4,-121.5 -76.3,-88 -152.9,-176 -217.38,-273.5 -128.56,-194.3 -278.32,-373.7 -399.03,-573.7 -44.57,-73.9 -102.69,-139.5 -155.47,-208.3 -34.72,-45.3 -67.07,-92.1 -93.78,-142.4 -12.15,-22.9 -38.83,-47.4 -19.54,-73.2 15.51,-20.7 45.79,-8.1 69.46,-5.1 37.58,4.8 75.47,9 112.34,17.3 60.04,13.5 118.2,6.9 176.76,-7.9 186.37,-47.3 373.54,-90.2 562.34,-127.3 151.2,-29.7 300.5,-72.5 420.9,-179.9 36.5,-32.6 82.1,-52.3 127.1,-71.5 17.5,-7.4 35,-14.6 52.1,-22.8 12.2,-5.9 25,-13.3 23.7,-29.4 -1.4,-16.2 -15.7,-22.4 -28.4,-24.2 -29.4,-4.3 -59.2,-5.7 -88.8,-8.3"
       style="fill:#231f20;fill-opacity:1;fill-rule:nonzero;stroke:none"
       transform="matrix(0.13333333,0,0,-0.13333333,0,2480)" />
    <path
       id="path10"
       d="m 8413.63,10018.1 c 89.22,-2.7 173.13,11.6 238.67,79.9 39.34,40.9 58.44,158.1 33.83,206.4 -10.51,20.6 -31.21,29.3 -48.43,42.1 -54.34,40.3 -111.61,77.2 -155.63,129.9 -45.47,54.4 -40.47,122.7 19.45,161 98.56,63 209.22,88.3 325.67,80.9 48.32,-3 66.4,-29.1 67.77,-84.1 1.88,-74.5 -17.66,-146 -46.17,-213 -24.02,-56.6 -7.15,-93.8 35.55,-126.7 80.27,-61.8 172.69,-79.6 268.9,-57.3 73.83,17.1 107.23,77.6 120.9,148.7 4.06,21.3 3.28,43.6 8.91,64.3 11.44,42.2 45.27,68.7 81.21,67.2 35.66,-1.5 68.36,-30.7 76.6,-72.8 4.06,-20.9 4.1,-43.3 1.91,-64.6 -21.52,-210 -207.97,-348.7 -415.35,-309.7 -56.09,10.5 -111.25,24.7 -161.56,52.6 -31.09,17.3 -46.29,9.3 -60.82,-23.6 -81.6,-184.89 -308.95,-232.66 -437.66,-212.85 -60.66,9.33 -93.28,39.02 -89.33,76.44 3.9,37.41 37.97,55.61 103.08,55.21 10.82,0 21.64,0 32.5,0"
       style="fill:#231f20;fill-opacity:1;fill-rule:nonzero;stroke:none"
       transform="matrix(0.13333333,0,0,-0.13333333,0,2480)" />
    <path
       id="path11"
       d="m 9504.57,11201.8 c 6.72,68.4 25.39,125 50.12,179.4 88.94,196.2 202.89,378.4 343.55,540 121.16,139.2 268.16,252.3 437.96,330.6 56.6,26 115.2,48.8 179.4,46.6 52.7,-1.9 88.5,-30 95.2,-71.8 6,-37.9 -16.6,-71.9 -62.8,-93.8 -7.3,-3.5 -15.1,-5.9 -22.9,-8.4 -244.4,-76.7 -432.1,-230.2 -584.2,-431.9 -124.02,-164.4 -247.5,-329.2 -328.67,-520.8 -5.16,-12.2 -12.85,-24.3 -22.19,-33.5 -28.01,-27.5 -64.14,-20.4 -77.58,16.1 -6.37,17.2 -6.29,36.9 -7.89,47.5"
       style="fill:#231f20;fill-opacity:1;fill-rule:nonzero;stroke:none"
       transform="matrix(0.13333333,0,0,-0.13333333,0,2480)" />
    <path
       id="path12"
       d="m 6650.82,10697.6 c 229.53,-0.6 429.26,-31.6 624.92,-90 83.79,-25 157.58,-71.2 234.77,-110.2 14.1,-7 27.22,-18.3 37.34,-30.5 43.75,-52.8 19.73,-115.8 -47.93,-127 -42.46,-7.1 -81.37,7.4 -116.52,27.4 -107.62,61.2 -225.59,89 -344.88,115 -95.67,20.8 -192.31,30.4 -289.61,33.9 -75.71,2.7 -151.57,0.2 -227.35,1.3 -84.33,1.1 -167.11,-5.6 -248.47,-31.1 -38.36,-11.9 -79.54,-15.5 -119.73,-20.6 -18.48,-2.3 -38.01,-1.3 -56.45,1.8 -25.5,4.3 -46.21,18.3 -51.09,45.5 -5.04,28.1 11.41,47.4 34.96,58 125.59,56.5 248.28,121.2 392.77,117.6 67.39,-1.7 135,6.6 177.27,8.9"
       style="fill:#231f20;fill-opacity:1;fill-rule:nonzero;stroke:none"
       transform="matrix(0.13333333,0,0,-0.13333333,0,2480)" />
    <path
       id="path13"
       d="M 50,50 H 18597.6 V 18550 H 50 Z"
       style="fill:none;stroke:#231f20;stroke-width:100;stroke-linecap:butt;stroke-linejoin:miter;stroke-miterlimit:10;stroke-dasharray:none;stroke-opacity:1"
       transform="matrix(0.13333333,0,0,-0.13333333,0,2480)" />
  </g>
</svg>
